<?xml version="1.0" standalone="no"?><!DOCTYPE svg PUBLIC "-//W3C//DTD SVG 1.1//EN" "http://www.w3.org/Graphics/SVG/1.1/DTD/svg11.dtd"><svg t="1584088332312" class="icon" viewBox="0 0 1024 1024" version="1.1" xmlns="http://www.w3.org/2000/svg" p-id="1687" xmlns:xlink="http://www.w3.org/1999/xlink" width="200" height="200"><defs><style type="text/css"></style></defs><path d="M822.489613 487.297531c-8.212844 0-16.288221 0.58823-24.226131 1.620829l-71.4316-280.243714h48.378733a22.378321 22.378321 0 1 0 0-44.756642h-163.39691a22.378321 22.378321 0 1 0 0 44.756642h68.829322l34.376298 134.867747a22.355943 22.355943 0 0 0-4.881671-0.581836H320.195411c-0.466748 0-0.917511 0.076726-1.381062 0.105498l-31.687703-43.615348h37.624351a22.378321 22.378321 0 1 0 0-44.756642h-163.393712a22.378321 22.378321 0 1 0 0 44.756642H231.807437l58.586444 80.635485-44.296288 113.170366a186.903737 186.903737 0 0 0-46.933733-5.959027c-103.263164 0-187.271381 84.008217-187.271381 187.27138s84.008217 187.271381 187.271381 187.271381c95.686504 0 174.787475-72.147707 185.887122-164.89306H532.022203c0.09271 0 0.182223-0.019181 0.274934-0.022378a22.825887 22.825887 0 0 0 2.893197-0.220586c0.390022-0.054347 0.773651-0.156648 1.163673-0.233374a22.666042 22.666042 0 0 0 1.972489-0.463551c0.421991-0.124679 0.834392-0.278131 1.249989-0.428385a22.017071 22.017071 0 0 0 4.964791-2.531947c0.201405-0.137467 0.415597-0.233374 0.613805-0.374038 0.089513-0.063938 0.163042-0.137467 0.252555-0.201405 0.214193-0.159845 0.415597-0.335675 0.626593-0.505111a22.164129 22.164129 0 0 0 3.513397-3.52938c0.079923-0.102301 0.169436-0.198208 0.249358-0.300509 0.562655-0.735288 1.070963-1.502544 1.531317-2.295377l0.070332-0.102301 173.898735-301.88355 29.596928 116.117911c-69.941844 27.173676-119.676064 95.165409-119.676064 174.59566 0 103.263164 84.008217 187.271381 187.271381 187.271381s187.271381-84.008217 187.271381-187.271381c0-103.259967-84.008217-187.271381-187.271381-187.27138zM321.627623 423.078143l166.459543 229.112447h-103.036184c-7.384846-61.700228-44.846155-114.279692-97.297743-142.565889l33.874384-86.546558z m-50.351222 128.643377c35.955568 21.189073 61.850482 57.678524 68.631114 100.46907H231.954494l39.321907-100.46907z m-72.112541 265.36213c-78.583073 0-142.514739-63.931666-142.514739-142.514739s63.931666-142.514739 142.514739-142.514738c10.453873 0 20.632812 1.163673 30.453698 3.308794L178.323249 666.413612a22.384715 22.384715 0 0 0 20.837414 30.53362h140.743655c-10.767169 67.988536-69.772408 120.136418-140.740458 120.136418z m330.671662-183.575761l-178.579002-245.79069h320.166639l-141.587637 245.79069z m292.654091 183.575761c-78.583073 0-142.514739-63.931666-142.514739-142.514739 0-58.538491 35.48882-108.928076 86.073417-130.833255l34.756729 136.360701a22.384715 22.384715 0 0 0 27.208842 16.157147 22.378321 22.378321 0 0 0 16.160344-27.212038l-34.756729-136.3607a143.694396 143.694396 0 0 1 13.072136-0.623397c78.583073 0 142.514739 63.931666 142.514739 142.514739 0 78.579876-63.931666 142.511542-142.514739 142.511542z" fill="#009FE8" p-id="1688"></path></svg>