<?xml version="1.0" standalone="no"?><!DOCTYPE svg PUBLIC "-//W3C//DTD SVG 1.1//EN" "http://www.w3.org/Graphics/SVG/1.1/DTD/svg11.dtd"><svg t="1590984995636" class="icon" viewBox="0 0 1024 1024" version="1.1" xmlns="http://www.w3.org/2000/svg" p-id="6269" xmlns:xlink="http://www.w3.org/1999/xlink" width="200" height="200"><defs><style type="text/css"></style></defs><path d="M510.919111 0c201.016889 1.166222 362.752 166.172444 362.752 369.806222-1.137778 93.639111-35.811556 179.057778-92.416 243.427556l-241.464889 244.593778a39.822222 39.822222 0 0 1-28.871111 11.690666c-10.410667 0-19.626667-3.498667-27.733333-11.690666l-248.376889-246.926223a370.375111 370.375111 0 0 1-88.945778-263.338666C156.245333 163.84 302.933333 12.885333 485.489778 1.166222c8.106667-1.166222 17.351111-1.166222 25.429333-1.166222z m305.863111 369.806222c0-172.487111-136.590222-311.836444-306.033778-312.917333-5.461333 0-7.907556 0-10.609777 0.113778-2.901333 0.085333-5.091556 0.284444-6.485334 0.483555l-4.522666 0.455111c-153.144889 9.813333-277.674667 137.159111-286.492445 292.892445a313.344 313.344 0 0 0 73.955556 221.383111l234.780444 233.415111L739.555556 574.492444c48.497778-55.722667 76.288-128.113778 77.226666-204.686222zM221.155556 684.856889a28.444444 28.444444 0 0 1 13.084444 55.381333C122.055111 766.634667 56.888889 807.168 56.888889 839.111111 56.888889 901.12 260.835556 967.111111 512 967.111111s455.111111-65.991111 455.111111-128c0-32-65.422222-72.590222-177.863111-98.986667a28.444444 28.444444 0 1 1 12.999111-55.409777C938.951111 716.828444 1024 769.592889 1024 839.111111c0 110.791111-229.034667 184.888889-512 184.888889S0 949.902222 0 839.111111c0-69.404444 84.792889-122.140444 221.184-154.254222z" fill="#e6e6e6" p-id="6270"></path><path d="M512 369.777778m-85.333333 0a85.333333 85.333333 0 1 0 170.666666 0 85.333333 85.333333 0 1 0-170.666666 0Z" fill="#e6e6e6" p-id="6271"></path></svg>