<?xml version="1.0" standalone="no"?><!DOCTYPE svg PUBLIC "-//W3C//DTD SVG 1.1//EN" "http://www.w3.org/Graphics/SVG/1.1/DTD/svg11.dtd"><svg t="1590987054018" class="icon" viewBox="0 0 1105 1024" version="1.1" xmlns="http://www.w3.org/2000/svg" p-id="9535" xmlns:xlink="http://www.w3.org/1999/xlink" width="215.8203125" height="200"><defs><style type="text/css"></style></defs><path d="M945.775962 1.000366H133.603536C62.827617 1.000366 5.181506 58.646477 5.181506 129.422396v576.33606c0 70.775919 57.646111 128.42203 128.42203 128.42203h812.172426c70.775919 0 128.42203-57.646111 128.42203-128.42203V129.422396c2.500916-70.775919-55.145195-128.42203-128.42203-128.42203z m57.646111 704.75809c0 31.386494-26.259617 55.020149-55.020149 55.020149H136.229497c-31.386494 0-55.020149-26.134571-55.020149-55.020149V129.422396c0-31.386494 26.259617-55.020149 55.020149-55.020149h812.172427c31.386494 0 55.020149 26.259617 55.020149 55.020149v576.33606z m-91.783612 243.714251H707.313635v-21.007693c0-18.381732-13.129808-31.386494-31.386495-31.386494H382.444664c-18.381732 0-31.386494 13.129808-31.386494 31.386494v21.007693H149.23426c-21.007693 0-36.638417 15.75577-36.638418 36.638418 0 21.007693 15.75577 36.638417 36.638418 36.638417h762.404201c21.007693 0 36.638417-15.75577 36.638417-36.638417 0.125046-21.007693-15.630724-36.638417-36.638417-36.638418z m0 0" p-id="9536" fill="#dbdbdb"></path><path d="M537.001264 320.617414c-102.162413 0-188.569056 49.768226-230.584442 78.653803-13.129808 7.877885-13.129808 28.760532 0 36.638418 41.890341 28.760532 128.42203 78.653804 230.584442 78.653804s188.694102-49.768226 230.584443-78.653804c13.129808-7.877885 13.129808-28.760532 0-36.638418-39.264379-26.259617-128.42203-78.653804-230.584443-78.653803z m0 180.816216c-47.142264 0-83.780681-36.638417-83.780681-83.780681s36.638417-83.780681 83.780681-83.780681 83.780681 36.638417 83.780682 83.780681c0.125046 47.142264-36.638417 83.780681-83.780682 83.780681z m0 0" p-id="9537" fill="#dbdbdb"></path><path d="M495.110924 417.527903c0 23.133472 18.756869 41.890341 41.89034 41.890341s41.890341-18.756869 41.890341-41.890341-18.756869-41.890341-41.890341-41.89034-41.890341 18.756869-41.89034 41.89034z m0 0" p-id="9538" fill="#dbdbdb"></path></svg>