<?xml version="1.0" standalone="no"?><!DOCTYPE svg PUBLIC "-//W3C//DTD SVG 1.1//EN" "http://www.w3.org/Graphics/SVG/1.1/DTD/svg11.dtd"><svg t="1584088675043" class="icon" viewBox="0 0 1024 1024" version="1.1" xmlns="http://www.w3.org/2000/svg" p-id="2917" xmlns:xlink="http://www.w3.org/1999/xlink" width="200" height="200"><defs><style type="text/css"></style></defs><path d="M508.769934 84.993766c-211.525578 0-383.64568 172.119079-383.64568 383.644657s172.120103 383.601678 383.64568 383.601678S892.371612 680.164001 892.371612 468.638423 720.295512 84.993766 508.769934 84.993766zM508.769934 808.187793c-187.262988 0-339.594395-152.287405-339.594395-339.54937s152.331407-339.593372 339.594395-339.593372c187.260941 0 339.550393 152.331407 339.550393 339.593372S696.030875 808.187793 508.769934 808.187793z" p-id="2918"></path><path d="M538.838763 267.26609 389.132136 267.26609c-12.000312 0-22.282492 10.32516-22.282492 22.88522l0 357.060185c0 12.603039 10.283204 22.884197 22.282492 22.884197 12.56313 0 22.844288-10.281157 22.844288-22.884197L411.976424 511.829108l114.818025 0 112.581078 146.265248c5.119601 6.840802 12.002358 12.002358 21.125133 12.002358 11.441587 0 22.88522-10.281157 22.88522-22.282492 0-6.281053-2.882654-11.444657-7.441483-16.563234l-99.417267-127.980813c62.290695-12.002358 106.859773-50.290383 106.859773-115.981525L683.386904 386.127198c0-31.446199-11.444657-59.410088-30.888498-78.853929C627.374192 282.150078 587.966671 267.26609 538.838763 267.26609zM637.654326 389.010875c0 51.407833-42.845831 82.251306-102.858646 82.251306L411.975401 471.26218 411.975401 308.99447l123.423007 0c64.528666 0 102.255918 29.726022 102.255918 78.853929L637.654326 389.010875z" p-id="2919"></path></svg>