<?xml version="1.0" standalone="no"?><!DOCTYPE svg PUBLIC "-//W3C//DTD SVG 1.1//EN" "http://www.w3.org/Graphics/SVG/1.1/DTD/svg11.dtd"><svg t="1584088642084" class="icon" viewBox="0 0 1024 1024" version="1.1" xmlns="http://www.w3.org/2000/svg" p-id="2095" xmlns:xlink="http://www.w3.org/1999/xlink" width="200" height="200"><defs><style type="text/css"></style></defs><path d="M920.746667 875.946667l-84.906667-84.906667c64-74.666667 102.826667-171.52 102.826667-277.333333 0-235.093333-191.573333-426.666667-426.666667-426.666667S85.333333 278.613333 85.333333 513.706667s191.573333 426.666667 426.666667 426.666666c106.666667 0 203.946667-39.253333 279.04-104.106666l84.906667 84.906666c16.64 16.64 37.546667 22.613333 54.186666 5.973334s7.253333-34.56-9.386666-51.2zM149.333333 513.706667c0-200.106667 162.56-362.666667 362.666667-362.666667s362.666667 162.56 362.666667 362.666667-162.56 362.666667-362.666667 362.666666-362.666667-162.56-362.666667-362.666666z" p-id="2096"></path><path d="M585.386667 648.106667c-31.573333 0-59.306667-0.426667-82.773334-0.853334-23.893333-0.853333-41.813333-4.266667-53.76-10.24-9.386667-5.546667-19.2-13.653333-28.16-24.32l-4.266666-4.266666V452.266667H322.133333v39.68h54.613334v112.64c-16.64 8.96-34.56 29.866667-55.466667 62.72l32 29.44c20.48-37.12 34.56-55.466667 42.666667-55.466667 5.12 0 9.813333 3.413333 15.36 10.24 11.946667 14.08 26.026667 23.466667 42.666666 28.16 17.493333 4.266667 38.826667 6.4 65.28 6.826667 26.026667 0.426667 50.346667 0.853333 72.96 0.853333H686.933333l10.24-42.24c-11.093333 0.853333-27.306667 1.706667-48.213333 2.56-22.186667 0.426667-42.666667 0.426667-63.573333 0.426667z" p-id="2097"></path><path d="M533.76 634.026667h42.24v-104.533334h63.573333c-0.853333 17.92-2.133333 29.44-4.266666 33.706667-3.413333 5.973333-11.093333 9.386667-23.466667 9.813333-7.253333 0-16.213333-0.853333-26.453333-2.133333l12.8 36.693333c6.826667 1.28 12.8 2.133333 18.773333 2.133334 26.88-0.426667 44.373333-8.106667 52.48-23.04 6.826667-12.8 10.24-44.373333 11.946667-95.573334H576v-30.72h86.186667v-37.546666H576v-29.44h96.853333v-38.4H576v-42.24h-42.24v42.24h-93.013333v38.4h93.013333v29.44h-76.8v37.546666h76.8v30.72h-96.426667v38.4h96.426667v104.533334zM394.666667 411.733333l31.146666-30.293333c-19.2-21.333333-42.24-42.666667-69.546666-64l-29.866667 28.16c29.866667 23.466667 52.48 45.653333 68.266667 66.133333z" p-id="2098"></path></svg>